<?xml version="1.0" encoding="UTF-8"?>
<svg id="Layer_1" xmlns="http://www.w3.org/2000/svg" version="1.1" viewBox="0 0 1080 1080">
  <!-- Generator: Adobe Illustrator 29.6.0, SVG Export Plug-In . SVG Version: 2.1.1 Build 207)  -->
  <defs>
    <style>
      .st0 {
        stroke-width: 2px;
      }

      .st0, .st1, .st2 {
        fill: #488efe;
      }

      .st0, .st2 {
        stroke: #488efe;
        stroke-miterlimit: 10;
      }
    </style>
  </defs>
  <g>
    <path class="st2" d="M370.41,637.89c-17.14-9.56-30.73-22.93-40.72-40.11-9.99-17.14-14.99-36.48-14.99-57.93s5-40.72,14.99-57.79c9.99-17.04,23.58-30.37,40.72-39.93,17.14-9.56,35.94-14.38,56.35-14.38s39.53,4.78,56.68,14.38c17.14,9.6,30.69,22.89,40.58,39.93,9.88,17.04,14.84,36.3,14.84,57.79s-4.96,40.79-14.84,57.93c-9.88,17.14-23.43,30.51-40.58,40.11-17.14,9.6-36.05,14.38-56.68,14.38s-39.21-4.78-56.35-14.38h0ZM465.62,611.08c11.36-6.65,20.27-16.1,26.67-28.43,6.43-12.33,9.63-26.56,9.63-42.77s-3.2-30.4-9.63-42.62c-6.43-12.22-15.31-21.56-26.67-28.1-11.36-6.51-24.3-9.78-38.85-9.78s-27.46,3.27-38.85,9.78c-11.36,6.54-20.27,15.89-26.67,28.1-6.43,12.22-9.63,26.42-9.63,42.62s3.2,30.48,9.63,42.77c6.43,12.33,15.31,21.78,26.67,28.43,11.36,6.61,24.3,9.96,38.85,9.96s27.46-3.31,38.85-9.96Z"/>
    <path class="st0" d="M269.86,540.02c8.23,5.21,14.81,12.18,19.73,20.92s7.37,18.22,7.37,28.46c0,16.17-5.68,29.97-17.04,41.4-11.36,11.43-25.12,17.14-41.22,17.14H82.14v-18.08h156.55c11.11,0,20.59-3.95,28.46-11.86s11.82-17.43,11.82-28.61-3.95-20.63-11.82-28.46-17.36-11.72-28.46-11.72H82.14v-18.33h156.55c11.11,0,20.59-3.92,28.46-11.75,7.87-7.83,11.82-17.32,11.82-28.46s-3.95-20.67-11.82-28.61c-7.87-7.91-17.36-11.86-28.46-11.86H82.14v-18.08h156.55c16.1,0,29.83,5.71,41.22,17.14,11.36,11.43,17.04,25.23,17.04,41.4,0,10.24-2.48,19.73-7.37,28.46-4.92,8.73-11.5,15.71-19.73,20.92v-.04Z"/>
    <path class="st2" d="M707.38,441.44c18.01,9.16,31.91,22.32,41.73,39.46,9.81,17.14,14.7,37.13,14.7,59.98s-4.92,42.7-14.7,59.48c-9.81,16.82-23.72,29.69-41.73,38.64-18.01,8.95-38.96,13.41-62.89,13.41h-73.39v-224.73h73.39c23.94,0,44.89,4.6,62.89,13.73v.04ZM704.94,601.01c14.02-14.23,21.02-34.29,21.02-60.13s-7.01-46.43-21.02-61.1c-14.02-14.66-34.18-22-60.45-22h-36.55v164.57h36.55c26.31,0,46.47-7.12,60.45-21.35Z"/>
    <path class="st2" d="M997.85,427.57v224.73h-36.87v-98.29h-105.73v98.29l-36.87.14v-224.87h36.87v96.35h105.73v-96.35h36.87Z"/>
  </g>
  <rect class="st1" x="82.18" y="490.43" width="170.28" height="1.01"/>
  <rect class="st1" x="82.18" y="588.86" width="170.28" height="1.01"/>
</svg>